<?xml version="1.0" encoding="UTF-8" standalone="no"?>
<!-- Created with Inkscape (http://www.inkscape.org/) -->

<svg
   width="1000"
   height="1000"
   viewBox="0 0 1000 1000"
   version="1.1"
   id="svg5"
   xmlns="http://www.w3.org/2000/svg"
   xmlns:svg="http://www.w3.org/2000/svg"
   xmlns:rdf="http://www.w3.org/1999/02/22-rdf-syntax-ns#"
   xmlns:cc="http://creativecommons.org/ns#"
   xmlns:dc="http://purl.org/dc/elements/1.1/">
  <defs
     id="defs2" />
  <g
     id="layer1">
    <g
       id="g1914"
       transform="matrix(1.8979708,0,0,1.8979708,-452.86264,-419.58496)">
      <path
         id="path1368"
         style="fill:#008000;fill-opacity:1;stroke:none;stroke-width:1px;stroke-linecap:butt;stroke-linejoin:miter;stroke-opacity:1"
         d="m 415.94141,235.99414 c -16.47163,0.11228 -33.22241,3.4858 -47.44532,7.81445 -14.2229,4.32866 -25.91629,9.61181 -36.82226,14.33399 -10.90597,4.72218 -21.02536,8.88295 -29.28906,11.75 -8.2637,2.86704 -14.67108,4.44118 -21.02344,5.45312 -6.35236,1.01195 -12.64852,1.46193 -14.44727,2.41797 -1.79875,0.95604 0.89992,2.41752 4.72266,4.16016 3.82274,1.74264 8.7698,3.76507 12.92969,6.57617 4.15989,2.8111 7.53262,6.40951 13.9414,11.75 6.40879,5.34049 15.85259,12.4238 24.79102,18.88867 8.93843,6.46487 17.36926,12.3118 27.48828,17.3711 10.11902,5.05929 21.92543,9.33092 33.78711,13.32226 11.86167,3.99134 23.77827,7.70253 35.80859,11.24414 12.03033,3.54162 24.17401,6.91288 36.0918,8.54297 11.91779,1.63009 23.61034,1.51939 31.98633,0.45117 8.37599,-1.06822 13.43528,-3.09264 16.52734,-3.37304 3.09206,-0.28041 4.21654,1.18053 6.24024,4.66601 2.02369,3.48548 4.94543,8.99575 6.74414,13.60547 1.7987,4.60972 2.4743,8.31971 3.99218,9.44336 1.51789,1.12365 3.87824,-0.33926 3.54102,-5.3418 -0.33722,-5.00253 -3.37322,-13.54759 -5.95898,-19.33789 -2.58577,-5.7903 -4.72187,-8.82543 -4.16016,-12.92969 0.56171,-4.10425 3.82335,-9.27599 6.29687,-15.79687 2.47352,-6.52088 4.15877,-14.39056 1.68555,-25.74609 -2.47322,-11.35554 -9.10649,-26.19573 -19.5625,-38.95704 -10.45601,-12.7613 -24.73409,-23.44252 -39.96875,-30.35742 -15.23466,-6.9149 -31.42486,-10.06345 -47.89648,-9.95117 z m -8.53711,20.44922 c 0.0492,-0.0155 0.1759,0.007 0.38672,0.0703 1.68655,0.50591 8.77031,3.5412 15.0664,8.26367 6.2961,4.72248 11.80409,11.13123 16.35742,18.43946 4.55334,7.30822 8.15091,15.51543 11.07422,21.69922 2.92331,6.18378 5.1732,10.34322 7.19727,12.8164 2.02407,2.47318 3.8218,3.26057 7.64453,5.45313 3.82272,2.19255 9.66852,5.79132 12.75976,6.35351 3.09123,0.5622 3.42881,-1.91231 2.81055,-8.6582 -0.61825,-6.74589 -2.19233,-17.76375 -6.4082,-27.0957 -4.21587,-9.33196 -11.07257,-16.97608 -17.3125,-22.87891 -6.23993,-5.90283 -11.86321,-10.06429 -11.58203,-10.57031 0.28118,-0.50603 6.46573,2.64342 13.04297,7.70312 6.57723,5.0597 13.54769,12.02913 18.26953,19.78711 4.72183,7.75798 7.19589,16.30276 8.54492,24.06055 1.34903,7.75778 1.57432,14.72922 2.41797,19.22656 0.84364,4.49735 2.30399,6.52092 5.33984,9.27539 3.03586,2.75447 7.64537,6.23995 10.00586,6.46485 2.36049,0.22489 2.4733,-2.81102 2.30469,-8.82618 -0.16861,-6.01515 -0.61913,-15.01043 -2.92383,-25.18554 -2.3047,-10.17512 -6.46328,-21.52948 -7.75586,-26.75782 -1.29258,-5.22833 0.28183,-4.32897 2.64258,0 2.36075,4.32898 5.50776,12.08574 7.8125,19.5625 2.30474,7.47677 3.76569,14.67251 4.27148,22.76758 0.5058,8.09508 0.0561,17.0903 0.28125,22.59961 0.22517,5.50932 1.12513,7.5326 0.90039,8.65625 -0.22474,1.12365 -1.57303,1.34787 -2.97851,0.16797 -1.40548,-1.1799 -2.86856,-3.76593 -4.83594,-5.17187 -1.96738,-1.40595 -4.44068,-1.62993 -8.48828,-2.02344 -4.0476,-0.39351 -9.66764,-0.95645 -17.65039,-1.91211 -7.98275,-0.95567 -18.32616,-2.30395 -21.69922,-3.25977 -3.37306,-0.95581 0.22374,-1.51727 5.56445,-1.46093 5.34072,0.0563 12.42417,0.72957 18.15821,1.12304 5.73403,0.39348 10.11851,0.50571 11.58007,-0.22461 1.46157,-0.73031 -6e-5,-2.30419 -2.58593,-4.32812 -2.58588,-2.02393 -6.29676,-4.49688 -10.68164,-7.19531 -4.38488,-2.69844 -9.44362,-5.62118 -13.1543,-6.46485 -3.71068,-0.84367 -6.07063,0.39189 -9.72461,1.85352 -3.65398,1.46163 -8.60135,3.14842 -15.79687,3.93554 -7.19552,0.78713 -16.64041,0.67541 -26.70313,0.11329 -10.06272,-0.56213 -20.74334,-1.57347 -25.07226,-2.5293 -4.32892,-0.95584 -2.30582,-1.8569 2.24804,-2.02539 4.55387,-0.1685 11.63865,0.39433 19.39649,0.61914 7.75783,0.22481 16.18994,0.11356 23.21679,-0.89844 7.02686,-1.012 12.64719,-2.92335 15.79492,-4.38476 3.14772,-1.46141 3.82188,-2.47474 2.30469,-3.76758 -1.51718,-1.29284 -5.22589,-2.86607 -11.35351,-5.56446 -6.12762,-2.69838 -14.67223,-6.5207 -21.19336,-8.76953 -6.52114,-2.24883 -11.01851,-2.92376 -16.86524,-2.41797 -5.84673,0.50579 -13.04214,2.1916 -21.98047,3.25977 -8.93832,1.06817 -19.61989,1.51767 -24.17382,1.01172 -4.55394,-0.50596 -2.98064,-1.96619 1.46093,-2.92188 4.44158,-0.95568 11.75131,-1.40628 18.38477,-2.19336 6.63346,-0.78707 12.59168,-1.91023 15.40234,-2.86523 2.81066,-0.955 2.47348,-1.74199 -0.22461,-2.81055 -2.69808,-1.06856 -7.75757,-2.41811 -13.9414,-3.99218 -6.18383,-1.57408 -13.4929,-3.37405 -20.57617,-5.06055 -7.08328,-1.6865 -13.94066,-3.25972 -20.57422,-4.55274 -6.63357,-1.29302 -13.04263,-2.30541 -16.64063,-3.37304 -3.59799,-1.06764 -4.38364,-2.1926 -1.6289,-2.41797 2.75473,-0.22538 9.05103,0.45053 16.07812,1.40625 7.02709,0.95571 14.78337,2.19185 18.15625,2.30469 3.37288,0.11283 2.36152,-0.89912 -1.23633,-4.10352 -3.59785,-3.2044 -9.78237,-8.60146 -11.46875,-10.68164 -1.68638,-2.08018 1.125,-0.84283 5.00391,1.63086 3.8789,2.47369 8.82651,6.18464 12.48047,9.44531 3.65395,3.26067 6.01453,6.07064 8.99414,7.86914 2.97961,1.79851 6.57726,2.58475 8.20703,1.9668 1.62977,-0.61795 1.29214,-2.64061 -2.13672,-7.30664 -3.42886,-4.66604 -9.94997,-11.97335 -11.58008,-14.67188 -1.63011,-2.69852 1.63007,-0.78738 5.39649,2.30469 3.76642,3.09207 8.03927,7.36375 11.41211,11.58008 3.37283,4.21633 5.84634,8.37716 10.625,11.1875 4.77865,2.81034 11.86222,4.27187 15.51562,4.10351 3.6534,-0.16834 3.87833,-1.96741 2.30469,-5.39648 -1.57364,-3.42907 -4.94746,-8.48836 -9.61328,-13.43555 -4.66582,-4.94718 -10.62356,-9.78332 -11.97266,-11.63867 -1.34909,-1.85535 1.91137,-0.73044 6.46485,2.41797 4.55347,3.14841 10.399,8.32132 14.83984,14.16797 4.44084,5.84665 7.47679,12.36734 11.69336,16.4707 4.21657,4.10337 9.61288,5.78991 15.51562,7.98242 5.90275,2.19252 12.31124,4.88938 14.95313,5.28321 2.64188,0.39383 1.51833,-1.51743 -0.73047,-7.19531 -2.2488,-5.67789 -5.62261,-15.12152 -10.96289,-23.2168 -5.34028,-8.09529 -12.64713,-14.84155 -18.15625,-19.22656 -4.82048,-3.83689 -8.26431,-5.86427 -7.91992,-5.97266 z" />
      <path
         id="path1298"
         style="fill:#2b1100;fill-opacity:1;stroke:none;stroke-width:1px;stroke-linecap:butt;stroke-linejoin:miter;stroke-opacity:1"
         d="m 567.66016,301.28711 c -0.20692,0.031 -0.41597,0.13189 -0.63477,0.30078 -0.8752,0.67558 -1.9081,2.42582 -3.41797,3.10156 -1.50987,0.67575 -3.4975,0.27853 -5.44531,-0.5957 -1.94781,-0.87423 -3.85714,-2.22546 -4.41406,-1.50977 -0.55693,0.7157 0.23903,3.49823 0.875,6.08204 0.63596,2.5838 1.11252,4.96799 0.0391,8.30664 -1.07346,3.33864 -3.69693,7.63175 -8.9043,16.37695 -5.20736,8.7452 -12.9987,21.94217 -17.80859,33.27148 -4.8099,11.32932 -6.63855,20.79027 -7.55274,26.35547 -0.91418,5.5652 -0.91326,7.23394 1.1543,8.1875 2.06756,0.95356 6.20085,1.19311 8.50586,-1.07226 2.30501,-2.26537 2.78166,-7.03655 3.77539,-12.36328 0.99373,-5.32674 2.50526,-11.20895 5.92383,-18.64258 3.41857,-7.43364 8.74414,-16.41747 13.47461,-22.97656 4.73047,-6.5591 8.86519,-10.69377 12.80078,-13.59571 3.93559,-2.90194 7.67154,-4.57093 10.375,-5.00781 2.70346,-0.43688 4.37263,0.35886 3.73633,-2.22461 -0.6363,-2.58347 -3.57735,-8.54718 -5.76367,-13.03906 -2.18633,-4.49189 -3.61648,-7.51308 -4.68946,-9.22266 -0.80473,-1.28218 -1.40854,-1.8255 -2.02929,-1.73242 z" />
      <path
         id="path165"
         style="fill:#aa0000;fill-opacity:1;stroke:none;stroke-width:0.965246px;stroke-linecap:butt;stroke-linejoin:miter;stroke-opacity:1"
         d="m 426.47656,383.34375 c -2.43377,0.0106 -4.83068,0.0587 -7.17773,0.15039 -18.77642,0.73348 -34.29284,4.29321 -45.64844,9.53125 -11.3556,5.23805 -18.54988,12.15174 -25.4082,19.79883 -6.85833,7.64708 -13.37914,16.02761 -19.33789,27.23633 -5.95875,11.20873 -11.35574,25.24614 -14.72852,45.56836 -3.37278,20.32223 -4.72296,46.93017 -0.33789,70.70898 4.38507,23.77882 14.5055,44.72799 27.66016,66.09766 13.15466,21.36966 29.3436,43.15684 45.87109,59.8125 16.5275,16.65564 33.39229,28.17778 47.55859,35.61523 14.16631,7.43745 25.6343,10.79211 39.01368,12.67774 13.37937,1.88563 28.66869,2.30341 37.55078,2.4082 8.88209,0.10482 16.93822,0.10482 25.82031,0 8.88209,-0.1048 24.17336,-0.52257 37.55273,-2.4082 13.37938,-1.88563 24.84737,-5.24029 39.01368,-12.67774 14.1663,-7.43745 31.02914,-18.95959 47.55664,-35.61523 16.52749,-16.65566 32.71838,-38.44284 45.87304,-59.8125 13.15466,-21.36967 23.27313,-42.31884 27.65821,-66.09766 4.38507,-23.77881 3.03684,-50.38675 -0.33594,-70.70898 -3.37278,-20.32222 -8.76977,-34.35963 -14.72852,-45.56836 -5.95874,-11.20872 -12.47956,-19.58925 -19.33789,-27.23633 -6.85832,-7.64709 -14.05456,-14.56078 -25.41015,-19.79883 -11.3556,-5.23804 -26.87006,-8.79777 -45.64649,-9.53125 -18.77642,-0.73348 -40.81397,1.36135 -58.35351,2.51367 -17.53955,1.15236 -30.58003,1.36204 -37.10157,1.4668 -6.52153,0.10476 -12.77729,0.10476 -19.29882,0 -6.52154,-0.10476 -19.56398,-0.31444 -37.10352,-1.4668 -15.3471,-1.00828 -34.13743,-2.73868 -51.17383,-2.66406 z" />
    </g>
  </g>
  <metadata
     id="metadata9">
    <rdf:RDF>
      <cc:Work
         rdf:about="">
        <dc:creator>
          <cc:Agent>
            <dc:title>freesvgfiles.org</dc:title>
          </cc:Agent>
        </dc:creator>
        <dc:rights>
          <cc:Agent>
            <dc:title>freesvgfiles.org</dc:title>
          </cc:Agent>
        </dc:rights>
        <dc:source>freesvgfiles.org</dc:source>
        <cc:license
           rdf:resource="https://freesvgfiles.org/" />
      </cc:Work>
    </rdf:RDF>
  </metadata>
</svg>
