<?xml version="1.0" encoding="UTF-8" standalone="no"?>
<!-- Created with Inkscape (http://www.inkscape.org/) -->

<svg
   width="1000"
   height="1000"
   viewBox="0 0 1000 1000"
   version="1.1"
   id="svg5"
   xmlns="http://www.w3.org/2000/svg"
   xmlns:svg="http://www.w3.org/2000/svg"
   xmlns:rdf="http://www.w3.org/1999/02/22-rdf-syntax-ns#"
   xmlns:cc="http://creativecommons.org/ns#"
   xmlns:dc="http://purl.org/dc/elements/1.1/">
  <defs
     id="defs2" />
  <g
     id="layer1">
    <g
       id="g5540"
       transform="matrix(1.7931821,0,0,1.7931821,-480.89574,-190.40655)">
      <path
         id="path84"
         style="fill:#2ca02c;fill-opacity:1;stroke:none;stroke-width:1px;stroke-linecap:butt;stroke-linejoin:miter;stroke-opacity:1"
         d="m 570.2793,150.92969 c -11.87928,0.28233 -26.54483,9.65062 -39.82618,23.56445 -14.16676,14.84142 -26.7587,34.85404 -35.41601,53.06836 -4.63689,9.75567 -8.10738,18.99709 -10.50391,28.25586 7.48198,1.79988 14.70428,4.0147 21.40821,6.73437 25.95162,10.52818 42.60765,28.36736 53.08593,47.00977 6.45681,11.48761 10.77489,23.45815 13.20899,35.20508 3.50272,-2.38666 7.08262,-4.53964 10.73047,-6.41797 14.33132,-7.37942 30.64299,-11.9599 50.11718,-12.0625 2.78052,-0.0146 5.62695,0.0591 8.54493,0.22461 23.33295,1.32329 50.92839,8.19523 72.37695,20.20703 18.9361,10.60475 31.96796,25.07131 42.65039,41.35156 13.10796,-13.73927 23.13652,-29.68689 30.5918,-45.04101 9.44439,-19.45071 14.83988,-37.88865 17.20117,-50.03125 2.36128,-12.1426 1.68665,-17.98767 -9.21875,-22.37305 -10.9054,-4.38538 -32.04057,-7.30927 -56.32617,-7.42188 -24.28561,-0.11258 -51.71853,2.58622 -78.14063,12.70508 -7.65296,2.93086 -15.21488,6.5026 -22.55859,10.63477 -2.4466,-16.94283 -6.40614,-34.40069 -11.39649,-50.43555 -6.85827,-22.03681 -15.62881,-41.37487 -24.39843,-56.89062 -8.76963,-15.51576 -17.53957,-27.20817 -29.79493,-28.22071 -0.76596,-0.0633 -1.54398,-0.0852 -2.33593,-0.0664 z" />
      <path
         id="path56"
         style="fill:#2c5aa0;fill-opacity:1;stroke:none;stroke-width:1px;stroke-linecap:butt;stroke-linejoin:miter;stroke-opacity:1"
         d="m 429.51367,259.21094 c -3.46214,-0.0143 -6.85388,0.0435 -10.14258,0.16992 -26.30959,1.0117 -46.09528,6.40797 -64.19726,15.17773 -18.10198,8.76977 -34.51724,20.91153 -45.87305,33.2793 -11.3558,12.36777 -17.65184,24.96093 -19.90039,41.82617 -2.24855,16.86525 -0.44958,38.00129 5.50977,53.9668 1.81868,4.87238 4.09692,9.23034 6.8789,13.35352 6.10555,-10.90928 13.12894,-20.88295 20.63282,-29.47266 26.01196,-29.776 57.73904,-42.7065 86.75195,-47.36719 7.25196,-1.16499 14.40565,-1.83841 21.43945,-2.01953 21.09728,-0.54328 41.12379,3.36037 59.41406,11.50195 17.88945,7.96316 34.34673,20.23475 47.77149,37.97071 0.855,-1.95345 1.7185,-3.89497 2.63281,-5.74414 6.43136,-13.00733 14.43205,-22.83823 23.26563,-30.49414 -1.99079,-12.25316 -6.18962,-24.98421 -13.00586,-37.11133 -9.66885,-17.20233 -24.50812,-33.16618 -48.34375,-42.83594 -20.85619,-8.46104 -48.59898,-12.10114 -72.83399,-12.20117 z" />
      <path
         id="path60"
         style="fill:#2c5aa0;fill-opacity:1;stroke:none;stroke-width:1px;stroke-linecap:butt;stroke-linejoin:miter;stroke-opacity:1"
         d="m 633.13477,335.84961 c -18.04648,0.0951 -32.60797,4.2138 -45.79102,11.00195 -15.06634,7.75789 -28.33328,19.0021 -38.33984,39.24024 -1.67388,3.38538 -3.21895,7.09263 -4.70508,10.92187 2.41084,3.82736 4.71138,7.84568 6.85742,12.11524 14.99254,29.82777 23.74297,70.32025 17.12109,107.52148 -2.48881,13.98201 -7.24794,27.36167 -14.26367,39.69922 5.69116,6.56926 12.37703,12.61303 20.28906,18.06445 18.43913,12.70464 43.17452,22.37462 70.15821,24.62305 26.98369,2.24843 56.21554,-2.92418 79.03906,-15.62891 22.82352,-12.70472 39.23794,-32.94039 48.00781,-54.75195 8.76987,-21.81156 9.89405,-45.19737 5.73438,-67.45898 -4.15968,-22.26162 -13.60481,-43.39905 -24.62305,-61.61329 -11.01824,-18.21423 -23.6096,-33.50456 -43.28516,-44.52343 -19.67556,-11.01887 -46.43381,-17.7649 -68.24609,-19.00196 -2.72653,-0.15463 -5.37506,-0.22256 -7.95312,-0.20898 z" />
      <path
         id="path52"
         style="fill:#2c5aa0;stroke-width:1px"
         d="m 430.83789,346.88477 c -6.62745,0.17066 -13.3896,0.80627 -20.27344,1.91211 -27.53535,4.42334 -57.00664,16.39363 -81.54297,44.48046 -24.53634,28.08683 -44.13387,72.28668 -38.87109,115.25196 5.26277,42.96528 35.38419,84.6943 76.50586,101.48437 41.12166,16.79006 93.2394,8.64136 129.66211,-10.5957 36.4227,-19.23705 57.14796,-49.56108 63.33203,-84.30274 6.18407,-34.74167 -2.17411,-73.89903 -16.32422,-102.05078 -14.15011,-28.15174 -34.09178,-45.29619 -56.86133,-55.43164 -17.07715,-7.60158 -35.74459,-11.26003 -55.62695,-10.74804 z" />
      <path
         id="path64"
         style="fill:#162d50;fill-opacity:1;stroke:none;stroke-width:1px;stroke-linecap:butt;stroke-linejoin:miter;stroke-opacity:1"
         d="m 431.50586,375.7168 c -5.17563,0.21366 -11.50186,4.1761 -17.53125,9.47461 -7.42079,6.52123 -14.39206,15.06685 -19.67578,17.76562 -5.28372,2.69877 -8.88039,-0.4507 -16.07617,-1.23828 -7.19579,-0.78758 -17.9903,0.78622 -23.5,5.39648 -5.50971,4.61027 -5.73401,12.25636 -4.60938,18.55274 1.12463,6.29637 3.59744,11.24345 3.25977,17.31445 -0.33768,6.07101 -3.48549,13.26549 -5.95899,21.81055 -2.4735,8.54505 -4.27197,18.43973 -0.89844,23.61133 3.37354,5.17159 11.9182,5.62144 18.66407,5.39648 6.74586,-0.22496 11.69172,-1.12521 15.06445,2.81055 3.37273,3.93575 5.17276,12.70549 7.64648,20.01367 2.47373,7.30818 5.62227,13.15455 11.69336,12.5918 6.0711,-0.56276 15.06529,-7.53279 21.13672,-12.14258 6.07144,-4.60979 9.2184,-6.85824 13.37891,-7.19531 4.16051,-0.33708 9.33283,1.23714 15.62891,1.57421 6.29607,0.33708 13.71719,-0.56326 17.08984,-4.72265 3.37265,-4.15939 2.69627,-11.57853 1.79687,-18.09961 -0.89939,-6.52108 -2.02299,-12.1433 0.33789,-18.77734 2.36089,-6.63405 8.20812,-14.27872 13.26758,-21.69922 5.05946,-7.42051 9.33114,-14.6168 7.75782,-19.22657 -1.57332,-4.60976 -8.99387,-6.63268 -15.96485,-7.41992 -6.97098,-0.78723 -13.49173,-0.33869 -17.87695,-4.49804 -4.38522,-4.15936 -6.63458,-12.92862 -9.44531,-21.58594 -2.81074,-8.65733 -6.18299,-17.20201 -11.80469,-19.22656 -1.05407,-0.37961 -2.18649,-0.52978 -3.38086,-0.48047 z m -18.99219,36.12109 c 10.68143,-0.11216 22.37467,2.81116 30.58203,7.87109 8.20736,5.05994 12.92809,12.25474 15.51368,20.125 2.58558,7.87026 3.03589,16.41528 0.7871,24.28516 -2.24878,7.86988 -7.19493,15.06582 -14.61523,20.91211 -7.4203,5.84629 -17.31466,10.34248 -26.87109,11.24219 -9.55643,0.8997 -18.77624,-1.79847 -25.63477,-5.84571 -6.85853,-4.04723 -11.35482,-9.44335 -15.17773,-16.41406 -3.82291,-6.97071 -6.9706,-15.51505 -5.95899,-25.07226 1.01162,-9.55721 6.18251,-20.1257 13.60352,-26.98438 7.421,-6.85868 17.09005,-10.00698 27.77148,-10.11914 z" />
      <path
         style="fill:#162d50;fill-opacity:1;stroke:none;stroke-width:1px;stroke-linecap:butt;stroke-linejoin:miter;stroke-opacity:1"
         d="m 708.09694,418.92148 c -7.19572,-1.34955 -17.31459,-1.34955 -20.35053,5.28466 -3.03594,6.63421 1.01153,19.90091 6.63359,28.89528 5.62207,8.99438 12.81756,13.71642 19.45052,13.04139 6.63296,-0.67503 12.70416,-6.74623 14.27837,-14.39109 1.5742,-7.64486 -1.34896,-16.86409 -4.94643,-22.82323 -3.59747,-5.95915 -7.8698,-8.65746 -15.06552,-10.00701 z"
         id="path72" />
      <path
         id="path76"
         style="fill:#162d50;fill-opacity:1;stroke:none;stroke-width:1px;stroke-linecap:butt;stroke-linejoin:miter;stroke-opacity:1"
         d="m 449.40625,246.58008 c -2.3262,-0.0178 -4.79432,0.25043 -7.32422,0.88281 -6.7464,1.68635 -13.94131,5.95842 -19.5625,6.9707 -5.62119,1.01229 -9.66821,-1.23582 -16.18945,-2.24804 -6.52124,-1.01223 -15.51635,-0.78843 -25.74805,2.13476 -10.2317,2.9232 -21.69904,8.5457 -24.73437,11.24414 -3.03534,2.69845 2.36167,2.47259 6.29687,2.47266 3.9352,7e-5 6.40741,0.22547 4.94531,2.13672 -1.46209,1.91125 -6.85868,5.50855 -9.89453,9.55664 -3.03584,4.04809 -3.71056,8.54578 0,9.10742 3.71056,0.56164 11.80613,-2.81082 19.00196,-5.17187 7.19582,-2.36106 13.49194,-3.71106 18.66406,-3.14844 5.17211,0.56262 9.21993,3.03583 15.85351,6.74609 6.63358,3.71026 15.85231,8.65831 22.59766,8.88281 6.74535,0.22451 11.0174,-4.27238 16.18945,-8.54492 5.17206,-4.27254 11.24469,-8.32034 18.10352,-10.11914 6.85883,-1.79879 14.5035,-1.35013 21.13672,-2.47461 6.63322,-1.12448 12.25512,-3.82184 10.90625,-7.08203 -1.34888,-3.26018 -9.66851,-7.08252 -15.96485,-8.99414 -6.29633,-1.91162 -10.56836,-1.9128 -13.9414,-3.48633 -3.37305,-1.57352 -5.84764,-4.72184 -10.23242,-6.74609 -2.74049,-1.26516 -6.22652,-2.08943 -10.10352,-2.11914 z m -16.24219,19.83203 c 7.3077,-0.043 14.72359,0.47234 17.57617,1.84961 3.2601,1.57402 0.56068,4.274 -5.06054,6.41016 -5.62123,2.13615 -14.16564,3.70921 -22.37305,3.25976 -8.20741,-0.44945 -16.07773,-2.92236 -18.66406,-4.83398 -2.58634,-1.91163 0.11328,-3.26048 5.06054,-4.38477 4.94727,-1.12429 12.14193,-2.02521 20.34961,-2.25 1.02597,-0.0281 2.06738,-0.0446 3.11133,-0.0508 z" />
    </g>
  </g>
  <metadata
     id="metadata9">
    <rdf:RDF>
      <cc:Work
         rdf:about="">
        <dc:creator>
          <cc:Agent>
            <dc:title>freesvgfiles.org</dc:title>
          </cc:Agent>
        </dc:creator>
        <dc:rights>
          <cc:Agent>
            <dc:title>freesvgfiles.org</dc:title>
          </cc:Agent>
        </dc:rights>
        <dc:source>freesvgfiles.org</dc:source>
        <cc:license
           rdf:resource="https://freesvgfiles.org/" />
      </cc:Work>
    </rdf:RDF>
  </metadata>
</svg>
