<?xml version="1.0" encoding="UTF-8" standalone="no"?>
<!-- Created with Inkscape (http://www.inkscape.org/) -->

<svg
   width="1000"
   height="1000"
   viewBox="0 0 1000 1000"
   version="1.1"
   id="svg5"
   xmlns="http://www.w3.org/2000/svg"
   xmlns:svg="http://www.w3.org/2000/svg"
   xmlns:rdf="http://www.w3.org/1999/02/22-rdf-syntax-ns#"
   xmlns:cc="http://creativecommons.org/ns#"
   xmlns:dc="http://purl.org/dc/elements/1.1/">
  <defs
     id="defs2" />
  <g
     id="layer1">
    <g
       id="g22237"
       transform="matrix(1.2176444,0,0,1.2176444,-152.01943,-93.289559)">
      <path
         style="fill:#fac400;fill-opacity:1;stroke:none;stroke-width:1px;stroke-linecap:butt;stroke-linejoin:miter;stroke-opacity:1"
         d="m 172.67744,341.22017 c 1.27247,4.45262 7.31457,10.49472 11.28923,20.51208 3.97466,10.01737 5.88266,24.00933 5.7235,39.27361 -0.15916,15.26429 -2.38515,31.80023 -6.99634,49.9266 -4.61119,18.12636 -11.60717,37.8423 -10.8118,62.80632 0.79537,24.96403 9.38134,55.17393 33.70952,87.45168 24.32817,32.27775 64.39604,66.62164 114.00552,92.69797 49.60948,26.07633 108.75729,43.88428 171.24585,49.60809 62.48856,5.72381 128.31434,-0.63617 180.62633,-14.46967 52.31199,-13.83349 91.10786,-35.13942 126.72462,-61.5341 35.61675,-26.39467 68.05265,-57.87656 89.04099,-90.63111 20.98834,-32.75454 30.52831,-66.78043 32.27765,-90.47169 1.74933,-23.69126 -4.29265,-37.04722 -12.5606,-44.52088 -8.26795,-7.47366 -18.76192,-9.06365 -31.95965,-6.04271 -13.19773,3.02093 -29.09768,10.65291 -52.63044,23.69132 -23.53277,13.03842 -54.69667,31.48236 -86.17946,48.6548 -31.4828,17.17243 -63.2827,33.07238 -97.1504,43.56665 -33.86771,10.49427 -69.80159,15.58225 -103.35131,15.42335 -33.54973,-0.1589 -64.71363,-5.56488 -98.89955,-17.96707 -34.18591,-12.40219 -71.39179,-31.80012 -100.8076,-52.4705 -29.41581,-20.67037 -51.03974,-42.6123 -65.19128,-61.37467 -14.15154,-18.76237 -20.82952,-34.34432 -25.44077,-48.81373 -4.61126,-14.4694 -7.15525,-27.82536 -7.47342,-38.95583 -0.31818,-11.13048 1.58982,-20.03445 -0.15862,-24.96382 -1.74843,-4.92936 -7.15441,-5.88336 -11.60683,-10.33501 -4.45241,-4.45165 -7.9504,-12.40162 -10.81264,-23.21398 -2.86225,-10.81236 -5.08824,-24.48631 -6.36034,-36.57067 -1.2721,-12.08436 -1.5901,-22.57832 -3.81629,-23.53255 -2.2262,-0.95424 -6.36018,7.63173 -12.08418,14.78664 -5.724,7.15492 -13.03799,12.8789 -20.98797,17.17196 -7.94999,4.29305 -16.53596,7.15504 -19.55705,11.92589 -3.0211,4.77084 -0.4771,11.44882 2.86202,19.55806 3.33913,8.10923 7.47312,17.6492 11.44846,24.32724 3.97534,6.67805 7.79133,10.49404 7.94986,13.83258 0.15852,3.33854 -3.33947,6.20053 -2.06701,10.65315 z"
         id="path7182" />
      <path
         id="path7621"
         style="fill:#a05a2c;fill-opacity:1;stroke:none;stroke-width:1px;stroke-linecap:butt;stroke-linejoin:miter;stroke-opacity:1"
         d="m 205.11328,228.96484 c -2.2262,-0.95424 -6.35998,7.6322 -12.08398,14.78711 -5.724,7.15492 -13.0383,12.87882 -20.98828,17.17188 -7.94999,4.29305 -16.53555,7.15493 -19.55664,11.92578 -3.0211,4.77084 -0.4778,11.4474 2.86132,19.55664 3.33913,8.10923 7.47388,17.65008 11.44922,24.32813 3.39543,5.70388 6.52848,9.28302 7.51172,12.29687 8.2631,0.0717 17.02903,0.96788 25.56055,0.74023 11.92511,-0.3182 23.37275,-2.86154 32.43554,-8.26757 1.1191,-0.66755 2.2015,-1.38 3.23829,-2.15039 -2.47294,-2.42072 -6.19324,-3.82857 -9.4375,-7.07227 -4.45241,-4.45165 -7.95222,-12.40053 -10.81446,-23.21289 -2.86225,-10.81236 -5.08727,-24.48595 -6.35937,-36.57031 -1.2721,-12.08436 -1.59022,-22.57898 -3.81641,-23.53321 z" />
      <path
         style="fill:#ffdb01;fill-opacity:1;stroke:none;stroke-width:1px;stroke-linecap:butt;stroke-linejoin:miter;stroke-opacity:1"
         d="m 235.64216,410.06888 c 5.40643,4.92927 14.62858,24.96361 32.27837,47.54213 17.64979,22.57851 43.72571,47.70043 76.16273,68.21169 32.43702,20.51126 71.2329,36.41121 108.91684,46.74625 37.68395,10.33505 74.25384,15.10504 109.87059,13.35576 35.61674,-1.74927 70.27863,-10.01724 103.82836,-22.10162 33.54973,-12.08437 65.98562,-27.98432 94.76525,-44.67975 28.77963,-16.69542 53.90155,-34.18537 71.07397,-45.79263 17.17241,-11.60727 26.39438,-17.33125 35.29881,-21.46535 8.90442,-4.13411 17.49039,-6.6781 23.8506,-4.92834 6.36022,1.74976 10.4942,7.79174 12.24279,13.67476 1.74858,5.88302 1.11258,11.607 -4.92968,25.4402 -6.04227,13.8332 -17.49023,35.77513 -37.20668,58.03549 -19.71645,22.26036 -47.70036,44.83829 -85.70229,65.98579 -38.00192,21.1475 -86.01977,40.86343 -134.67488,53.26575 -48.65511,12.40231 -97.94495,17.49029 -148.50818,13.9923 -50.56322,-3.498 -102.39705,-15.58196 -145.80519,-37.3653 -43.40814,-21.78335 -78.38802,-53.26524 -98.42281,-80.77283 -20.03478,-27.50759 -25.12276,-51.03951 -26.23594,-72.66423 -1.11318,-21.62472 1.74881,-41.34066 3.97486,-56.28702 2.22605,-14.94636 3.81604,-25.12233 9.22248,-20.19305 z"
         id="path19571" />
      <path
         id="path7625"
         style="fill:#a05a2c;fill-opacity:1;stroke:none;stroke-width:1px;stroke-linecap:butt;stroke-linejoin:miter;stroke-opacity:1"
         d="m 888.72461,434.43945 c -4.02007,-0.22046 -8.39582,0.26732 -13.08399,1.29102 4.29627,9.99949 10.5321,20.10703 18.75,27.60351 8.04754,7.34107 17.97286,12.16994 25.2168,10.37891 -0.87947,-15.91979 -6.01074,-25.83667 -12.65625,-31.84375 -5.16747,-4.67104 -11.20338,-7.04454 -18.22656,-7.42969 z" />
    </g>
  </g>
  <metadata
     id="metadata9">
    <rdf:RDF>
      <cc:Work
         rdf:about="">
        <dc:creator>
          <cc:Agent>
            <dc:title>freesvgfiles.org</dc:title>
          </cc:Agent>
        </dc:creator>
        <dc:rights>
          <cc:Agent>
            <dc:title>freesvgfiles.org</dc:title>
          </cc:Agent>
        </dc:rights>
        <dc:source>freesvgfiles.org</dc:source>
        <cc:license
           rdf:resource="https://freesvgfiles.org/" />
      </cc:Work>
    </rdf:RDF>
  </metadata>
</svg>
