<?xml version="1.0" encoding="UTF-8" standalone="no"?>
<!-- Created with Inkscape (http://www.inkscape.org/) -->

<svg
   width="1000"
   height="1000"
   viewBox="0 0 1000 1000"
   version="1.1"
   id="svg5"
   xmlns="http://www.w3.org/2000/svg"
   xmlns:svg="http://www.w3.org/2000/svg"
   xmlns:rdf="http://www.w3.org/1999/02/22-rdf-syntax-ns#"
   xmlns:cc="http://creativecommons.org/ns#"
   xmlns:dc="http://purl.org/dc/elements/1.1/">
  <defs
     id="defs2" />
  <g
     id="layer1">
    <g
       id="g2521"
       transform="matrix(1.2740746,0,0,1.2740746,-38.094955,-12.751462)">
      <path
         id="path59"
         style="fill:#ff2a2a;fill-opacity:1;stroke:none;stroke-width:1px;stroke-linecap:butt;stroke-linejoin:miter;stroke-opacity:1"
         d="m 398.4375,210.36914 c -38.70928,0.45261 -76.41446,4.12977 -106.78906,12.24609 -55.54214,14.84129 -86.57296,44.52364 -99.83985,89.94727 -13.26688,45.42363 -8.76955,106.5848 11.46875,181.01562 20.23831,74.43085 56.21678,162.1265 90.17188,211.14649 33.95509,49.01998 65.88428,59.36206 102.3125,64.08398 36.42822,4.72193 77.35178,3.82359 110.18164,-9.21875 32.82985,-13.04233 57.56435,-38.22604 86.79687,-95.11718 29.23253,-56.89115 62.96248,-145.48633 75.33008,-219.4668 12.36761,-73.98047 3.37224,-133.34421 -26.98437,-170.44727 -30.35661,-37.10305 -82.07382,-51.9426 -147.95899,-59.36328 -24.70693,-2.78275 -51.40496,-4.5218 -78.05664,-4.82617 -5.55243,-0.0634 -11.10291,-0.0647 -16.63281,0 z m 211.75781,140.53125 c 1.08446,0.0145 2.16582,0.13581 3.22461,0.33984 0.94115,0.18135 1.8658,0.42759 2.76172,0.71875 3.58363,1.16462 6.70969,3.05715 8.28516,6.09961 1.57542,3.04246 1.59959,7.23493 -0.22657,12.14649 -1.82618,4.91157 -5.50223,10.54405 -8.76367,14.50195 -3.26143,3.9579 -6.10754,6.2423 -8.4375,6.1543 -2.32996,-0.088 -4.14442,-2.55013 -6.20117,-8.05664 -2.05677,-5.5065 -4.35567,-14.05875 -3.7832,-20.04688 0.57246,-5.98814 4.01703,-9.41247 7.75976,-10.90625 1.75441,-0.7002 3.57344,-0.9754 5.38086,-0.95117 z M 425.85156,363.4375 c 3.77291,-0.0675 7.36,0.69989 9.86719,3.05859 2.50715,2.35871 3.93609,6.30687 3.85937,11.53711 -0.0767,5.23026 -1.65905,11.74361 -3.41015,16.54102 -1.75112,4.79741 -3.67178,7.87919 -5.90039,8.55469 -2.2286,0.67549 -4.76505,-1.05633 -8.55274,-5.58399 -3.7877,-4.52767 -8.8273,-11.85124 -10.29492,-17.68945 -1.46763,-5.83822 0.63633,-10.19196 3.66797,-12.82031 2.27374,-1.97127 5.06868,-2.9713 7.91602,-3.37696 0.94911,-0.13523 1.90441,-0.2038 2.84765,-0.2207 z m 76.75782,7.94922 c 0.95891,0.0107 1.91308,0.0881 2.84765,0.21484 3.73828,0.50704 7.1618,1.81175 9.26953,4.52344 2.10769,2.71169 2.89881,6.83039 2.00391,11.98633 -0.89492,5.15594 -3.47553,11.3486 -5.95703,15.82226 -2.48151,4.47366 -4.86222,7.22812 -7.16992,7.55664 -2.30771,0.32851 -4.54494,-1.76896 -7.57813,-6.81835 -3.03319,-5.04939 -6.86279,-13.04958 -7.39844,-19.04102 -0.53567,-5.99145 2.22389,-9.9735 5.63086,-12.10938 2.55524,-1.6019 5.4748,-2.16696 8.35157,-2.13476 z m -184.0918,5.32617 c 3.25078,0.0468 6.29287,0.81226 8.54297,2.81641 2.5715,2.29045 4.10768,6.19932 4.17578,11.42968 0.0681,5.23037 -1.33156,11.78233 -2.94922,16.625 -1.61767,4.84268 -3.45303,7.97581 -5.66211,8.71094 -2.20908,0.73513 -4.79348,-0.92932 -8.70508,-5.35351 -3.9116,-4.42419 -9.1506,-11.6077 -10.7793,-17.4043 -1.62866,-5.79661 0.35278,-10.20521 3.31055,-12.91406 2.21833,-2.03163 4.98526,-3.10783 7.82031,-3.58985 0.94501,-0.16069 1.89938,-0.25467 2.8418,-0.29687 0.47121,-0.0211 0.9399,-0.0301 1.4043,-0.0234 z m -75.11524,12.14649 c 3.77274,-0.0762 7.36027,0.68419 9.87305,3.0371 2.51275,2.35291 3.95092,6.29694 3.88672,11.52735 -0.0642,5.23042 -1.63139,11.7474 -3.37109,16.54883 -1.73971,4.80143 -3.65191,7.88772 -5.87891,8.56836 -2.22699,0.68063 -4.76993,-1.04555 -8.56836,-5.56446 -3.79845,-4.51891 -8.85248,-11.82925 -10.33398,-17.66406 -1.48151,-5.83482 0.61133,-10.19474 3.63671,-12.83008 2.26905,-1.97651 5.06185,-2.9823 7.90821,-3.39453 0.94879,-0.1374 1.90447,-0.20952 2.84765,-0.22851 z m 315.375,39.75781 c 1.08446,0.0145 2.16387,0.1358 3.22266,0.33984 0.94115,0.18135 1.8658,0.42759 2.76172,0.71875 3.58364,1.16462 6.71164,3.05716 8.28711,6.09961 1.57542,3.04247 1.59765,7.23491 -0.22852,12.14649 -1.82617,4.91155 -5.50224,10.54405 -8.76367,14.50195 -3.26144,3.95789 -6.10755,6.24231 -8.4375,6.15429 -2.32996,-0.088 -4.14441,-2.55013 -6.20117,-8.05664 -2.05676,-5.5065 -4.35567,-14.05874 -3.7832,-20.04687 0.57245,-5.98814 4.01703,-9.41247 7.75976,-10.90625 1.75441,-0.70021 3.57539,-0.9754 5.38281,-0.95117 z m -175.29882,1.85742 c 3.25077,0.0468 6.29286,0.81031 8.54296,2.81445 2.5715,2.29045 4.10769,6.19934 4.17579,11.42969 0.0681,5.23037 -1.33157,11.78234 -2.94922,16.625 -1.61768,4.84269 -3.45302,7.97775 -5.66211,8.71289 -2.20907,0.73513 -4.79348,-0.92934 -8.70508,-5.35352 -3.91161,-4.42417 -9.14866,-11.60965 -10.77734,-17.40624 -1.62869,-5.79663 0.35277,-10.20522 3.31054,-12.91407 2.21833,-2.03164 4.98527,-3.10587 7.82032,-3.58789 0.94501,-0.16069 1.89741,-0.25663 2.83984,-0.29883 0.4712,-0.0211 0.9399,-0.0282 1.4043,-0.0215 z m 234.24804,6.99805 c 1.08446,0.0145 2.16387,0.13776 3.22266,0.34179 0.94115,0.18134 1.8658,0.42759 2.76172,0.71875 3.58364,1.16461 6.71164,3.05715 8.28711,6.09961 1.57542,3.04246 1.59959,7.23493 -0.22657,12.14649 -1.82618,4.91156 -5.50223,10.54211 -8.76367,14.5 -3.26143,3.9579 -6.1095,6.24229 -8.43945,6.15429 -2.32996,-0.088 -4.14246,-2.55014 -6.19922,-8.05664 -2.05676,-5.50651 -4.35762,-14.05679 -3.78516,-20.04492 0.57246,-5.98814 4.01704,-9.41248 7.75977,-10.90625 1.7544,-0.70021 3.57539,-0.97735 5.38281,-0.95312 z m -149.0957,7.07617 c 3.77291,-0.0675 7.35804,0.70185 9.86523,3.06055 2.50714,2.35869 3.93608,6.30686 3.85938,11.5371 -0.0767,5.23026 -1.6571,11.74167 -3.4082,16.53907 -1.75112,4.79741 -3.67373,7.88114 -5.90235,8.55664 -2.2286,0.67549 -4.76505,-1.05828 -8.55273,-5.58594 -3.7877,-4.52767 -8.82535,-11.84929 -10.29297,-17.6875 -1.46763,-5.83822 0.63437,-10.19196 3.66601,-12.82031 2.27374,-1.97127 5.07063,-2.97325 7.91797,-3.37891 0.9491,-0.13523 1.90443,-0.2038 2.84766,-0.2207 z m -195.37695,29.97461 c 3.77274,-0.0762 7.36026,0.6842 9.87304,3.03711 2.51274,2.35291 3.95092,6.29693 3.88672,11.52734 -0.0642,5.23041 -1.63139,11.74741 -3.37109,16.54883 -1.73971,4.80144 -3.65191,7.88773 -5.87891,8.56836 -2.22699,0.68064 -4.76993,-1.04553 -8.56836,-5.56446 -3.79845,-4.5189 -8.85248,-11.83119 -10.33398,-17.66601 -1.48151,-5.83481 0.61134,-10.19278 3.63672,-12.82813 2.26905,-1.97651 5.06184,-2.98425 7.9082,-3.39648 0.94879,-0.13741 1.90448,-0.20756 2.84766,-0.22656 z m 78.12109,42.96289 c 3.25078,0.0468 6.29286,0.81226 8.54297,2.8164 2.5715,2.29045 4.10768,6.19934 4.17578,11.42969 0.0681,5.23037 -1.33156,11.78234 -2.94922,16.625 -1.61768,4.84269 -3.45302,7.9758 -5.66211,8.71094 -2.20907,0.73513 -4.79348,-0.92934 -8.70508,-5.35352 -3.91161,-4.42419 -9.15061,-11.60769 -10.77929,-17.40429 -1.62869,-5.79661 0.35277,-10.20522 3.31054,-12.91407 2.21833,-2.03164 4.98528,-3.10782 7.82032,-3.58984 0.94502,-0.16069 1.89937,-0.25467 2.84179,-0.29687 0.47121,-0.0211 0.9399,-0.0301 1.4043,-0.0234 z m 172.10352,4.5664 c 1.08445,0.0145 2.16386,0.13776 3.22265,0.3418 0.94116,0.18135 1.8658,0.42564 2.76172,0.7168 3.58364,1.16461 6.71163,3.0591 8.28711,6.10156 1.57541,3.04247 1.5996,7.23297 -0.22656,12.14453 -1.82618,4.91157 -5.50223,10.54406 -8.76367,14.50196 -3.26143,3.95786 -6.10951,6.24229 -8.43946,6.15429 -2.32996,-0.088 -4.14247,-2.55013 -6.19922,-8.05664 -2.05676,-5.5065 -4.35762,-14.05874 -3.78515,-20.04687 0.57246,-5.98814 4.01703,-9.41247 7.75976,-10.90625 1.75441,-0.70021 3.57539,-0.9754 5.38282,-0.95118 z m 77.53125,6.15821 c 1.08445,0.0145 2.16386,0.13776 3.22265,0.34179 0.94116,0.18134 1.8658,0.42759 2.76172,0.71875 3.58364,1.16461 6.71164,3.05715 8.28711,6.09961 1.57542,3.04246 1.59764,7.23297 -0.22852,12.14453 -1.82618,4.91157 -5.50223,10.54407 -8.76367,14.50196 -3.26143,3.9579 -6.10754,6.24227 -8.4375,6.1543 -2.32995,-0.088 -4.14442,-2.55015 -6.20117,-8.05665 -2.05677,-5.50651 -4.35567,-14.05679 -3.7832,-20.04492 0.57246,-5.98814 4.01703,-9.41248 7.75976,-10.90625 1.75441,-0.70021 3.57539,-0.97735 5.38282,-0.95312 z m -173.84766,6.11718 c 0.95892,0.0107 1.91308,0.0881 2.84766,0.21485 3.73827,0.50705 7.16179,1.81176 9.26953,4.52344 2.10769,2.71169 2.89881,6.83038 2.0039,11.98632 -0.89492,5.15593 -3.47553,11.34861 -5.95703,15.82227 -2.48151,4.47365 -4.86221,7.22813 -7.16992,7.55664 -2.30771,0.32852 -4.54493,-1.76897 -7.57813,-6.81836 -3.03318,-5.04938 -6.86277,-13.04958 -7.39843,-19.04101 -0.53566,-5.99145 2.22388,-9.97351 5.63086,-12.10938 2.55524,-1.60191 5.47481,-2.16695 8.35156,-2.13477 z m -130.49609,33.63086 c 3.77274,-0.0762 7.36025,0.68419 9.87304,3.03711 2.51274,2.35291 3.95092,6.29694 3.88672,11.52735 -0.0642,5.23041 -1.62945,11.74741 -3.36914,16.54883 -1.73971,4.80144 -3.65386,7.88775 -5.88086,8.56835 -2.22699,0.68066 -4.76797,-1.04554 -8.5664,-5.56445 -3.79846,-4.51892 -8.85445,-11.82924 -10.33594,-17.66406 -1.48151,-5.83481 0.61133,-10.19473 3.63672,-12.83008 2.26905,-1.97651 5.06184,-2.98425 7.9082,-3.39648 0.94879,-0.13741 1.90447,-0.20757 2.84766,-0.22657 z m 174.86132,29.01368 c 0.95892,0.0107 1.91308,0.0881 2.84766,0.21484 3.73827,0.50704 7.16179,1.80979 9.26953,4.52148 2.10769,2.71169 2.90077,6.8304 2.00586,11.98633 -0.89492,5.15594 -3.47748,11.35056 -5.95898,15.82422 -2.48151,4.47366 -4.86222,7.22617 -7.16993,7.55469 -2.30771,0.32851 -4.54299,-1.76896 -7.57617,-6.81836 -3.0332,-5.04938 -6.86473,-13.04958 -7.40039,-19.04102 -0.53566,-5.99145 2.22388,-9.97349 5.63086,-12.10937 2.55524,-1.6019 5.47481,-2.16501 8.35156,-2.13281 z m -99.01172,3.21484 c 3.25079,0.0468 6.29288,0.81226 8.54297,2.81641 2.5715,2.29045 4.10964,6.19932 4.17774,11.42968 0.0681,5.23037 -1.33351,11.78233 -2.95117,16.625 -1.61767,4.84268 -3.45303,7.97581 -5.66211,8.71094 -2.20908,0.73513 -4.79348,-0.92932 -8.70508,-5.35351 -3.91161,-4.42419 -9.14864,-11.6077 -10.77735,-17.4043 -1.62866,-5.79661 0.35278,-10.20521 3.31055,-12.91406 2.21833,-2.03164 4.98526,-3.10783 7.82031,-3.58985 0.94501,-0.16069 1.89743,-0.25663 2.83985,-0.29883 0.4712,-0.0211 0.93991,-0.0282 1.40429,-0.0215 z m 181.66797,0.72461 c 1.08446,0.0145 2.16387,0.13776 3.22266,0.3418 0.94116,0.18134 1.8658,0.42563 2.76172,0.71679 3.58364,1.16461 6.71163,3.05911 8.28711,6.10157 1.57542,3.04247 1.5996,7.23297 -0.22656,12.14453 -1.82618,4.91156 -5.50419,10.54406 -8.76563,14.50195 -3.26143,3.9579 -6.10755,6.2423 -8.4375,6.1543 -2.32996,-0.088 -4.14247,-2.55014 -6.19922,-8.05664 -2.05676,-5.50651 -4.35761,-14.0568 -3.78515,-20.04493 0.57246,-5.98814 4.01704,-9.41443 7.75976,-10.9082 1.75441,-0.70021 3.57539,-0.9754 5.38281,-0.95117 z m -186.46484,72.80078 c 1.29085,0.004 2.55304,0.21713 3.75977,0.69336 3.2179,1.26997 6.03527,4.41221 7.93945,9.29492 1.90419,4.88272 2.8955,11.50663 3.08203,16.60156 0.18652,5.09494 -0.43266,8.6613 -2.24609,10.10547 -1.81342,1.44416 -4.82125,0.76479 -10.04688,-2.04882 -5.22565,-2.81363 -12.66719,-7.76183 -16.23437,-12.64258 -3.56719,-4.88075 -3.26068,-9.69292 -1.43946,-13.24414 1.36594,-2.66342 3.58265,-4.61849 6.07227,-6.03907 0.82988,-0.47354 1.69143,-0.88655 2.56055,-1.24804 2.17278,-0.9038 4.40131,-1.47929 6.55273,-1.47266 z m 142.52539,4.70899 c 1.08445,0.0145 2.16386,0.13775 3.22266,0.34179 0.94115,0.18135 1.8658,0.42759 2.76172,0.71875 3.58364,1.16462 6.71164,3.05715 8.2871,6.09961 1.57543,3.04246 1.5996,7.23493 -0.22656,12.14649 -1.82618,4.91157 -5.50223,10.5421 -8.76367,14.5 -3.26143,3.9579 -6.1095,6.24229 -8.43945,6.15429 -2.32996,-0.088 -4.14246,-2.55013 -6.19922,-8.05664 -2.05676,-5.5065 -4.35762,-14.05679 -3.78516,-20.04492 0.57246,-5.98814 4.01704,-9.41247 7.75977,-10.90625 1.7544,-0.70021 3.57539,-0.97736 5.38281,-0.95312 z m -67.33789,0.12695 c 0.36046,-10e-4 0.72093,0.007 1.08008,0.0254 0.95773,0.0484 1.90917,0.16282 2.83789,0.32617 3.7148,0.65342 7.08173,2.09051 9.07812,4.88281 1.99635,2.79229 2.62228,6.93801 1.51954,12.05469 -1.10274,5.11672 -3.93328,11.20547 -6.59376,15.57813 -2.66046,4.37267 -5.15153,7.02992 -7.4707,7.26757 -2.31915,0.23764 -4.46641,-1.94685 -7.29297,-7.11132 -2.82658,-5.16448 -6.33207,-13.3087 -6.625,-19.31641 -0.29292,-6.00773 2.62653,-9.8785 6.11719,-11.87891 2.29075,-1.31276 4.82639,-1.81891 7.34961,-1.82812 z" />
      <path
         id="path63"
         style="fill:#008000;fill-opacity:1;stroke:none;stroke-width:1.18912px;stroke-linecap:butt;stroke-linejoin:miter;stroke-opacity:1"
         d="m 389.86328,33.494141 c -1.43619,0.158396 -2.92733,1.536434 -4.84766,4.033203 -3.07251,3.994831 -7.24861,10.852675 -12.31835,15.472656 -5.06974,4.619983 -11.03325,7.004948 -15.44727,9.806641 -4.41403,2.801694 -7.27706,6.020119 -0.33203,16.041015 6.94503,10.0209 23.69693,26.841234 35.30469,47.015624 8.48162,14.74112 14.19092,31.25813 17.79687,46.56641 -7.314,-2.69604 -15.772,-4.51082 -24.94922,-5.26758 -5.58865,-0.90976 -11.95204,-0.99573 -17.74609,-1.12891 -11.04386,-0.25384 -19.92885,-0.76219 -30.46484,-3.17382 -10.536,-2.41167 -22.72382,-6.72851 -35.54493,-9.14063 -9.61583,-1.80907 -19.58759,-2.54669 -29.70312,-2.42773 -3.37185,0.0396 -6.7586,0.17632 -10.1543,0.39843 -13.58279,0.88848 -27.29359,3.17407 -36.30664,5.33203 -9.01306,2.15796 -13.32806,4.18749 -10.91601,11.16993 2.41203,6.98244 11.55238,18.91541 29.07031,28.5625 3.58643,1.97503 7.58927,3.82223 11.77343,5.58398 -14.46808,6.58129 -29.07894,14.1045 -42.50976,22.66992 -26.7911,17.08587 -48.88591,38.31257 -61.86719,52.03321 -12.98129,13.72066 -16.84815,19.93252 -2.76172,23.55664 14.08643,3.62412 46.12416,4.65807 78.71485,2.32812 16.83597,-1.20361 33.80564,-3.32309 50.13672,-6.28711 -12.50841,19.27808 -21.04796,39.11842 -25.92774,52.13086 -5.46747,14.57953 -6.37425,20.58141 5.84766,19.20508 12.22192,-1.37633 37.56812,-10.1314 62.20508,-21.67578 24.63697,-11.54438 48.56491,-25.87768 67.33984,-41.07031 9.36887,-7.58125 17.4531,-15.37668 24.46484,-22.90821 7.9089,8.88969 17.27335,18.28598 28.51758,27.38477 18.77494,15.19263 42.69896,29.52789 67.33594,41.07226 24.63694,11.54438 49.98513,20.2975 62.20703,21.67383 12.22192,1.37632 11.31513,-4.62553 5.84766,-19.20508 -5.46745,-14.57953 -15.49648,-37.73585 -30.59571,-59.0625 -0.7763,-1.09649 -1.61795,-2.16353 -2.41992,-3.25 23.84955,6.06079 50.28705,10.1242 76.41602,11.99219 32.59068,2.32995 64.62842,1.296 78.71484,-2.32812 14.08645,-3.62412 10.21955,-9.83598 -2.76172,-23.55664 -12.98129,-13.72064 -35.07607,-34.94734 -61.86719,-52.03321 -13.1439,-8.38245 -27.41766,-15.75616 -41.58203,-22.23633 4.56452,-1.88347 8.90107,-3.88291 12.77735,-6.01757 17.51794,-9.64709 26.65826,-21.58006 29.07031,-28.5625 2.41205,-6.98244 -1.90492,-9.01197 -10.91797,-11.16993 -9.01307,-2.15796 -22.72385,-4.44355 -36.30664,-5.33203 -3.3957,-0.22211 -6.78246,-0.35878 -10.1543,-0.39843 -10.11555,-0.11896 -20.08728,0.61866 -29.70312,2.42773 -12.82111,2.41212 -25.00893,6.72896 -35.54492,9.14063 -10.53599,2.41164 -19.41904,2.91998 -30.46289,3.17382 -5.54761,0.12752 -11.63715,0.1924 -17.05079,0.9961 -10.52846,0.6323 -20.25476,2.55971 -28.42968,5.6875 -0.81716,0.31266 -1.53346,0.69267 -2.31641,1.02929 -2.70822,-14.76871 -6.79542,-29.34326 -10.96289,-42.16406 -5.27301,-16.22186 -10.63473,-29.64182 -13.9707,-43.179686 -3.33596,-13.537867 -4.64429,-27.19243 -6.72852,-36.734375 -2.08423,-9.541945 -4.94663,-14.970836 -7.36133,-17.119141 -0.90553,-0.805614 -1.74571,-1.149725 -2.60742,-1.054687 z" />
    </g>
  </g>
  <metadata
     id="metadata9">
    <rdf:RDF>
      <cc:Work
         rdf:about="">
        <dc:creator>
          <cc:Agent>
            <dc:title>freesvgfiles.org</dc:title>
          </cc:Agent>
        </dc:creator>
        <dc:rights>
          <cc:Agent>
            <dc:title>freesvgfiles.org</dc:title>
          </cc:Agent>
        </dc:rights>
        <dc:source>freesvgfiles.org</dc:source>
        <cc:license
           rdf:resource="https://freesvgfiles.org/" />
      </cc:Work>
    </rdf:RDF>
  </metadata>
</svg>
