<?xml version="1.0" encoding="UTF-8" standalone="no"?>
<!-- Created with Inkscape (http://www.inkscape.org/) -->

<svg
   width="1000"
   height="1000"
   viewBox="0 0 1000 1000"
   version="1.1"
   id="svg5"
   xmlns="http://www.w3.org/2000/svg"
   xmlns:svg="http://www.w3.org/2000/svg"
   xmlns:rdf="http://www.w3.org/1999/02/22-rdf-syntax-ns#"
   xmlns:cc="http://creativecommons.org/ns#"
   xmlns:dc="http://purl.org/dc/elements/1.1/">
  <defs
     id="defs2" />
  <g
     id="layer1">
    <g
       id="g12360"
       transform="matrix(0.89790336,0,0,0.89790336,852.10094,80.927541)">
      <path
         style="fill:#452242;fill-opacity:1;stroke:none;stroke-width:1px;stroke-linecap:butt;stroke-linejoin:miter;stroke-opacity:1"
         d="m -525.28177,406.10473 c -7.64537,56.66564 -15.74047,110.63293 -33.95475,174.04508 -18.21429,63.41214 -46.54655,136.26653 -56.44025,194.28212 -9.8937,58.01558 -1.34905,101.18855 23.38681,138.51609 24.73586,37.32754 65.66025,68.80783 109.05934,84.32298 43.39909,15.5151 89.27037,15.0654 133.34365,-1.79973 44.07327,-16.86515 86.34681,-50.1443 116.47858,-98.49025 30.13176,-48.34595 48.1205,-111.75625 55.5411,-166.62326 7.4206,-54.86701 4.27257,-101.18801 -10.34372,-176.51834 -14.61629,-75.33033 -40.69996,-179.66501 -58.23937,-245.10061 -17.5394,-65.4356 -26.53377,-91.96898 -40.47518,-113.33134 -13.94141,-21.36236 -32.82958,-37.55222 -53.96708,-44.74834 -21.1375,-7.19611 -44.52286,-5.39724 -67.00967,0.22438 -22.48681,5.62162 -44.0733,15.06571 -59.81419,29.00773 -15.7409,13.94202 -25.6347,32.38047 -34.17955,71.28274 -8.54485,38.90228 -15.74034,98.26511 -23.38572,154.93075 z"
         id="path52" />
      <path
         style="fill:#92b51c;fill-opacity:1;stroke:none;stroke-width:1px;stroke-linecap:butt;stroke-linejoin:miter;stroke-opacity:1"
         d="m -263.98959,221.26714 c -7.64564,-24.73553 -15.51578,-42.04959 -26.75866,-56.21644 -11.24289,-14.16685 -25.85867,-25.18505 -38.45135,-34.17934 -12.59268,-8.99429 -19.78817,-20.68697 -21.81233,-39.575931 -2.02415,-18.888966 1.12388,-44.972636 5.62116,-68.133908 4.49729,-23.16127112682 10.34363,-43.398601 15.96529,-57.790161 5.62166,-14.39156 11.01828,-22.936209 5.39721,-30.131827 -5.62108,-7.195619 -22.26066,-13.041959 -34.1792,-8.994291 -11.91855,4.047668 -19.11405,17.988937 -28.55844,40.700573 -9.4444,22.711636 -21.13708,54.191928 -28.55757,83.199772 -7.42048,29.007843 -10.56851,55.541233 -12.8172,71.281643 -2.2487,15.74042 -3.59785,20.68732 -8.76948,25.18419 -5.17163,4.49687 -14.16601,8.54434 -25.18467,16.63964 -11.01866,8.0953 -24.0605,20.2377 -33.28007,37.77768 -9.21957,17.53998 -14.61619,40.47562 -18.43889,57.79027 -3.82269,17.31465 -6.07128,29.00733 -11.01832,39.3508 -4.94704,10.34348 -12.59225,19.33785 -23.6101,22.26113 -11.01785,2.92328 -25.40884,-0.22474 -35.75265,-4.0472 -10.34381,-3.82245 -16.63986,-8.31963 -16.64008,-3.82202 -2.3e-4,4.4976 6.29583,17.98915 18.43897,27.65794 12.14314,9.66879 30.13187,15.51513 48.34583,17.0889 18.21397,1.57376 36.65243,-1.12455 55.5409,-8.32033 18.88847,-7.19578 38.22637,-18.88846 51.49315,-32.38013 13.26679,-13.49168 20.46228,-28.7821 24.0602,-32.15469 3.59792,-3.37259 3.59792,5.17206 6.52151,15.29115 2.92359,10.11908 8.76993,21.81176 15.06615,35.07887 6.29623,13.26712 13.042,28.10782 12.59183,43.17344 -0.45018,15.06562 -8.0954,30.35605 -16.19032,40.47467 -8.09492,10.11862 -16.63957,15.06552 -15.51478,17.76401 1.12479,2.69848 11.91803,3.1482 25.63442,-3.37305 13.7164,-6.52125 30.35598,-20.0128 43.84774,-39.12617 13.49177,-19.11337 23.83529,-43.84788 26.75871,-66.559 2.92341,-22.71111 -1.57377,-43.39815 -2.2479,-53.51751 -0.67413,-10.11937 2.4739,-9.66965 6.52115,-2.47335 4.04725,7.19629 8.99415,21.13757 16.86479,33.2802 7.87063,12.14264 18.66387,22.48616 33.72998,28.78194 15.0661,6.29578 34.40399,8.54437 51.26872,7.86959 16.86473,-0.67478 31.25572,-4.27253 33.27961,-7.19556 2.0239,-2.92304 -8.31962,-5.17163 -22.03646,-10.56827 -13.71684,-5.39664 -30.80614,-13.94129 -44.74805,-31.93008 -13.94191,-17.98879 -24.73516,-45.42162 -32.3808,-70.15715 z"
         id="path56" />
      <path
         style="fill:#ffffff;fill-opacity:1;stroke:none;stroke-width:0.78831px;stroke-linecap:butt;stroke-linejoin:miter;stroke-opacity:1"
         d="m -292.56582,479.58293 c -3.82973,13.6706 -3.37922,48.82344 -5.85713,87.32452 -2.4779,38.50108 -7.8839,80.34885 -18.24582,114.94377 -10.36191,34.59492 -25.67891,61.93546 -31.31003,85.65018 -5.63112,23.71472 -1.57662,43.80165 9.91179,53.56582 11.48841,9.76418 30.4094,9.2062 45.72639,-4.46436 15.31698,-13.67057 27.02998,-40.45314 33.33721,-75.60621 6.30723,-35.15307 7.20823,-78.67476 4.05467,-123.31369 -3.15355,-44.63892 -10.36154,-90.39248 -18.01995,-117.17577 -7.65841,-26.78328 -15.76741,-34.59486 -19.59713,-20.92426 z"
         id="path11875" />
    </g>
  </g>
  <metadata
     id="metadata9">
    <rdf:RDF>
      <cc:Work
         rdf:about="">
        <dc:creator>
          <cc:Agent>
            <dc:title>freesvgfiles.org</dc:title>
          </cc:Agent>
        </dc:creator>
        <dc:rights>
          <cc:Agent>
            <dc:title>freesvgfiles.org</dc:title>
          </cc:Agent>
        </dc:rights>
        <dc:source>freesvgfiles.org</dc:source>
        <cc:license
           rdf:resource="https://freesvgfiles.org/" />
      </cc:Work>
    </rdf:RDF>
  </metadata>
</svg>
